<svg width="66" height="66" viewBox="0 0 66 66" fill="none" xmlns="http://www.w3.org/2000/svg">
<path fill-rule="evenodd" clip-rule="evenodd" d="M58.6152 40.2875C61.0501 36.4675 62.3403 32.0301 62.3332 27.5C62.3332 14.3367 51.6632 3.66669 38.4999 3.66669C33.7937 3.66669 29.4065 5.03069 25.7124 7.38286C23.2539 7.52075 20.8205 7.95032 18.4634 8.66252C21.0322 5.9238 24.136 3.7418 27.5826 2.25172C31.0291 0.761646 34.745 -0.00475172 38.4999 2.21658e-05C53.6872 2.21658e-05 65.9999 12.3127 65.9999 27.5C65.9999 35.398 62.6706 42.5205 57.3374 47.5365C58.0359 45.221 58.4741 42.7937 58.6152 40.2875Z" fill="#4D4DA1"/>
<path fill-rule="evenodd" clip-rule="evenodd" d="M62.2104 41.4389C60.8829 43.6919 59.2422 45.7449 57.3374 47.5365C58.0359 45.221 58.474 42.7937 58.6152 40.2875C61.0501 36.4675 62.3403 32.0301 62.3332 27.5C62.3332 14.3367 51.6632 3.6667 38.4999 3.6667C33.7937 3.6667 29.4065 5.0307 25.7124 7.38287C23.2539 7.52077 20.8205 7.95033 18.4634 8.66253C20.255 6.75776 22.3081 5.11705 24.561 3.78953C28.7842 1.30106 33.5981 -0.00768612 38.4999 3.39579e-05C53.6872 3.39579e-05 65.9999 12.3127 65.9999 27.5C66.0085 32.4019 64.6997 37.2161 62.2104 41.4389Z" fill="#4D4DA1"/>
<path fill-rule="evenodd" clip-rule="evenodd" d="M55 38.5C55 53.6873 42.6873 66 27.5 66C12.3127 66 0 53.6873 0 38.5C0 23.3127 12.3127 11 27.5 11C42.6873 11 55 23.3127 55 38.5ZM25.6667 29.3333C24.6942 29.3333 23.7616 29.7196 23.0739 30.4073C22.3863 31.0949 22 32.0275 22 33C22 33.9725 22.3863 34.9051 23.0739 35.5927C23.7616 36.2804 24.6942 36.6667 25.6667 36.6667V29.3333ZM29.3333 25.6667V23.8333H25.6667V25.6667C23.7217 25.6667 21.8565 26.4393 20.4812 27.8146C19.106 29.1898 18.3333 31.0551 18.3333 33C18.3333 34.9449 19.106 36.8102 20.4812 38.1854C21.8565 39.5607 23.7217 40.3333 25.6667 40.3333V47.6667C24.0717 47.6667 22.7132 46.6492 22.2072 45.2228C22.1321 44.9895 22.011 44.7735 21.851 44.5878C21.691 44.4021 21.4954 44.2503 21.2758 44.1415C21.0561 44.0327 20.8169 43.969 20.5722 43.9543C20.3275 43.9395 20.0823 43.974 19.8512 44.0557C19.62 44.1373 19.4076 44.2645 19.2265 44.4297C19.0454 44.5949 18.8992 44.7947 18.7967 45.0174C18.6942 45.24 18.6373 45.481 18.6295 45.726C18.6217 45.971 18.6631 46.2151 18.7513 46.4438C19.257 47.8738 20.1936 49.1118 21.432 49.9875C22.6705 50.8631 24.1499 51.3333 25.6667 51.3333V53.1667H29.3333V51.3333C31.2783 51.3333 33.1435 50.5607 34.5188 49.1854C35.8941 47.8102 36.6667 45.9449 36.6667 44C36.6667 42.0551 35.8941 40.1898 34.5188 38.8146C33.1435 37.4393 31.2783 36.6667 29.3333 36.6667V29.3333C30.9283 29.3333 32.2868 30.3508 32.7928 31.7772C32.8679 32.0105 32.989 32.2265 33.149 32.4122C33.309 32.5979 33.5046 32.7497 33.7242 32.8585C33.9439 32.9673 34.1831 33.031 34.4278 33.0457C34.6725 33.0605 34.9177 33.026 35.1488 32.9443C35.38 32.8627 35.5924 32.7355 35.7735 32.5703C35.9546 32.4051 36.1008 32.2053 36.2033 31.9826C36.3058 31.76 36.3627 31.519 36.3705 31.274C36.3783 31.029 36.3369 30.7849 36.2487 30.5562C35.743 29.1262 34.8064 27.8882 33.568 27.0125C32.3295 26.1369 30.8501 25.6667 29.3333 25.6667ZM29.3333 40.3333V47.6667C30.3058 47.6667 31.2384 47.2804 31.9261 46.5927C32.6137 45.9051 33 44.9725 33 44C33 43.0275 32.6137 42.0949 31.9261 41.4073C31.2384 40.7196 30.3058 40.3333 29.3333 40.3333Z" fill="#4D4DA1"/>
</svg>
