<svg width="74" height="64" viewBox="0 0 74 64" fill="none" xmlns="http://www.w3.org/2000/svg">
<path d="M69.0945 24.9166C68.7394 24.6599 68.3852 24.424 68.0318 24.2087C73.4135 19.9163 76.7296 8.73633 70.7324 5.04002C65.8025 2.00141 60.6448 3.30733 56.8982 7.50296C55.6201 5.07416 52.9461 3.30117 51.9593 2.64678C45.9711 0.0600787 42.0835 0.328944 38.2771 0.560349C44.6013 4.48474 47.4752 9.73497 48.4666 15.7705C50.3039 11.3524 48.1819 6.41422 48.1819 6.41422C49.0419 6.53751 50.1677 6.90501 51.46 8.43617C53.7909 11.1979 51.7543 18.2301 51.555 19.0476C50.0585 23.3798 47.6157 28.1876 44.4666 31.0802C44.5479 30.4757 44.6145 29.8612 44.6664 29.2365C45.141 23.4557 44.0869 18.5715 42.5909 14.7083L46.2279 16.9327C43.3004 9.03602 36.6648 2.79616 36.6648 2.79616C36.6648 2.79616 30.0292 9.03602 27.1017 16.9327L30.7383 14.7083C29.2423 18.5715 28.19 23.4557 28.6632 29.2365C28.693 29.6045 28.7287 29.969 28.7705 30.33C26.002 27.4161 23.8402 23.0706 22.4657 19.1111C22.4026 18.7318 20.1348 11.2951 22.5478 8.43617C23.8402 6.90501 24.9683 6.53941 25.8264 6.41422C25.8264 6.41422 23.703 11.3524 25.5417 15.7705C26.5332 9.73497 29.4065 4.48474 35.7308 0.560349C31.9248 0.329419 28.0367 0.060553 22.0485 2.64678C21.0608 3.30164 18.3835 5.07701 17.1068 7.50818C13.3597 3.30875 8.19963 2.00046 3.26741 5.04239C-2.72986 8.7387 0.586765 19.9187 5.96798 24.211C5.61486 24.4273 5.2608 24.6633 4.90578 24.919C-2.37959 30.1825 4.81086 44.6534 12.5068 46.7469C10.8053 48.7532 10.1854 51.3964 10.2467 53.3766C10.3207 55.7594 11.2173 62.6204 20.9384 62.3198C28.0462 62.1002 30.9694 57.9572 33.9903 57.8662C37.0113 57.7752 37.7047 58.5301 37.7047 58.5301C37.7047 58.5301 36.4109 55.9732 33.3672 56.0671C33.0672 56.0766 32.7563 56.1321 32.4293 56.1714C25.1743 57.044 23.6285 52.8047 23.6285 52.8047C23.6285 52.8047 22.4291 56.5849 26.7743 58.0796C25.2384 58.6382 23.6892 59.1067 22.2573 59.1508C18.6127 59.2632 14.4389 56.8808 15.0968 53.5051C17.5472 43.5898 34.4099 54.3804 36.7464 56.2227C36.7464 56.2227 46.5027 63.3915 53.0733 63.5726C62.1679 63.8253 63.1973 57.5817 63.0877 54.0182C63.0402 52.496 62.3758 49.1454 59.7103 47.0025C67.9919 46.9428 76.9408 30.5846 69.0945 24.9166ZM22.4258 43.8994C25.0685 39.6971 18.9682 32.7716 18.9682 32.7716C15.9943 29.5471 13.0355 29.3304 13.0355 29.3304C13.0355 29.3304 16.7755 33.3852 17.0731 39.6236C18.7152 38.5885 18.9715 36.4689 18.9715 36.4689C18.9715 36.4689 23.7177 43.1402 16.4157 42.732C9.11375 42.3237 5.48055 32.5269 9.66715 29.3641C14.5913 25.6445 19.4443 29.3574 22.983 36.852C24.4244 39.9039 26.1691 42.879 28.0348 45.3836C26.3314 44.6629 24.4377 44.1052 22.4244 43.8994H22.4258ZM29.5451 40.6749C28.2982 39.0153 27.0049 36.9345 25.7628 34.335C23.3537 29.2929 20.3726 25.6161 17.0489 23.7482C19.7067 20.1501 14.9212 13.3412 14.9212 13.3412C12.5808 10.1641 10.0146 9.72312 10.0146 9.72312C10.0146 9.72312 12.9572 13.7172 12.7199 19.4113C14.2387 18.6052 14.6302 16.7013 14.6302 16.7013C14.6302 16.7013 18.2421 23.1569 11.8993 22.182C5.55648 21.207 3.16204 12.003 7.07004 9.47369C11.6662 6.50005 15.6079 10.276 18.1025 17.3799C20.4182 23.9735 25.2412 31.9702 29.8488 36.8842C29.9646 38.2551 29.9352 39.6673 29.5455 40.6759L29.5451 40.6749ZM32.0211 34.0732C32.0211 34.0732 33.9728 35.6333 35.3392 45.3827C29.6799 40.0215 32.0216 34.0742 32.0216 34.0742L32.0211 34.0732ZM38.6568 45.3827C40.0227 35.6333 41.9743 34.0732 41.9743 34.0732C41.9743 34.0732 44.3194 40.0215 38.6572 45.3836L38.6568 45.3827ZM58.4915 53.3491C56.9333 63.5759 46.1624 59.3931 40.1523 53.7668C41.8343 52.4865 48.0499 53.241 50.4168 56.4465C49.9683 50.5324 45.1699 49.9027 42.7086 50.2588C45.2924 49.722 48.058 48.3364 51.0737 48.243C54.7325 48.1297 59.0103 49.9477 58.492 53.3491H58.4915ZM57.5807 42.732C50.2806 43.1402 55.0244 36.4689 55.0244 36.4689C55.0244 36.4689 55.2821 38.5885 56.9229 39.6236C57.22 33.3852 60.96 29.3304 60.96 29.3304C60.96 29.3304 58.0017 29.5466 55.0273 32.7716C55.0273 32.7716 47.6493 41.1472 52.6357 45.0659C52.5531 45.0659 52.4719 45.0659 52.3884 45.0707C48.6688 45.1859 46.4011 46.1395 44.6521 47.0362C47.0048 44.2475 49.2379 40.6076 51.012 36.852C54.5517 29.3598 59.4037 25.6445 64.3279 29.3641C68.5159 32.5269 64.8813 42.3232 57.5812 42.732H57.5807ZM62.0953 22.1829C55.753 23.156 59.3648 16.7022 59.3648 16.7022C59.3648 16.7022 59.7583 18.6075 61.2747 19.4122C61.0373 13.7182 63.98 9.72407 63.98 9.72407C63.98 9.72407 61.4137 10.1646 59.0734 13.3421C59.0734 13.3421 54.2892 20.151 56.9457 23.7492C53.6233 25.617 50.6409 29.2939 48.2312 34.3359C46.9545 37.009 45.6208 39.1333 44.3432 40.8172C43.9184 39.8465 43.8647 38.4495 43.9658 37.0763C48.6271 32.1803 53.5455 24.0612 55.8906 17.3822C58.3852 10.2784 62.3269 6.50242 66.9235 9.47607C70.833 12.004 68.4385 21.208 62.0957 22.1829H62.0953Z" fill="#4D4DA1"/>
</svg>
