<svg width="81" height="80" viewBox="0 0 81 80" fill="none" xmlns="http://www.w3.org/2000/svg">
<g clip-path="url(#clip0_419_1713)">
<path d="M69.5933 22.5693C69.272 22.3369 68.9514 22.1234 68.6316 21.9285C73.502 18.044 76.5031 7.92612 71.0756 4.58097C66.6141 1.83103 61.9464 3.01289 58.5557 6.80993C57.399 4.61187 54.9791 3.00731 54.0861 2.4151C48.6667 0.0741347 45.1485 0.317457 41.7037 0.526878C47.4271 4.07845 50.0279 8.82989 50.9252 14.292C52.5879 10.2937 50.6675 5.82462 50.6675 5.82462C51.4458 5.93619 52.4646 6.26878 53.6342 7.65448C55.7436 10.1538 53.9005 16.5179 53.7201 17.2578C52.3658 21.1784 50.1551 25.5295 47.3051 28.1472C47.3787 27.6002 47.439 27.044 47.486 26.4787C47.9155 21.2471 46.9615 16.8269 45.6076 13.3307L48.8991 15.3438C46.2498 8.19734 40.2446 2.55028 40.2446 2.55028C40.2446 2.55028 34.2393 8.19734 31.59 15.3438L34.8811 13.3307C33.5272 16.8269 32.5749 21.2471 33.0032 26.4787C33.0301 26.8117 33.0624 27.1416 33.1002 27.4683C30.5948 24.8313 28.6383 20.8986 27.3944 17.3153C27.3373 16.972 25.285 10.2418 27.4687 7.65448C28.6383 6.26878 29.6593 5.93791 30.4359 5.82462C30.4359 5.82462 28.5142 10.2937 30.1782 14.292C31.0755 8.82989 33.6758 4.07845 39.3993 0.526878C35.9549 0.317887 32.4362 0.0745638 27.0169 2.4151C26.123 3.00774 23.7 4.61444 22.5446 6.81465C19.1535 3.01418 14.4837 1.83018 10.02 4.58312C4.59253 7.92827 7.59406 18.0461 12.464 21.9307C12.1445 22.1264 11.824 22.3399 11.5028 22.5714C4.90952 27.3349 11.4169 40.4309 18.3816 42.3256C16.8418 44.1413 16.2808 46.5333 16.3362 48.3254C16.4032 50.4818 17.2146 56.6911 26.0122 56.419C32.4448 56.2203 35.0902 52.4709 37.8242 52.3885C40.5581 52.3061 41.1857 52.9893 41.1857 52.9893C41.1857 52.9893 40.0148 50.6754 37.2602 50.7604C36.9888 50.7689 36.7074 50.8191 36.4115 50.8548C29.8457 51.6444 28.4468 47.8079 28.4468 47.8079C28.4468 47.8079 27.3613 51.229 31.2937 52.5816C29.9037 53.0872 28.5017 53.5112 27.2058 53.5511C23.9075 53.6528 20.1302 51.4968 20.7256 48.4417C22.9432 39.4684 38.2039 49.2339 40.3184 50.9011C40.3184 50.9011 49.1478 57.3889 55.0942 57.5528C63.3248 57.7815 64.2564 52.131 64.1572 48.906C64.1142 47.5285 63.5129 44.4962 61.1007 42.5569C68.5955 42.5028 76.6942 27.6988 69.5933 22.5693ZM27.3583 39.7486C29.7499 35.9456 24.2292 29.678 24.2292 29.678C21.5378 26.7598 18.8601 26.5637 18.8601 26.5637C18.8601 26.5637 22.2448 30.2333 22.5141 35.8791C24.0003 34.9422 24.2322 33.024 24.2322 33.024C24.2322 33.024 28.5275 39.0616 21.9192 38.6921C15.311 38.3226 12.0229 29.4565 15.8118 26.5942C20.2681 23.228 24.66 26.5882 27.8626 33.3707C29.1671 36.1327 30.746 38.8251 32.4345 41.0918C30.8929 40.4395 29.1791 39.9349 27.357 39.7486H27.3583ZM33.8012 36.8305C32.6729 35.3285 31.5024 33.4454 30.3783 31.0928C28.1981 26.5298 25.5002 23.2022 22.4922 21.5119C24.8976 18.2555 20.5666 12.0935 20.5666 12.0935C18.4486 9.21826 16.1262 8.81916 16.1262 8.81916C16.1262 8.81916 18.7893 12.4338 18.5745 17.5869C19.949 16.8574 20.3033 15.1344 20.3033 15.1344C20.3033 15.1344 23.572 20.9767 17.8318 20.0944C12.0916 19.2121 9.92468 10.8825 13.4614 8.59343C17.6209 5.90229 21.1882 9.31954 23.4458 15.7485C25.5414 21.7157 29.9063 28.9527 34.0761 33.3999C34.1809 34.6405 34.1543 35.9185 33.8017 36.8313L33.8012 36.8305ZM36.0421 30.856C36.0421 30.856 37.8083 32.2678 39.0449 41.091C33.9232 36.2391 36.0425 30.8568 36.0425 30.8568L36.0421 30.856ZM42.0473 41.091C43.2835 32.2678 45.0497 30.856 45.0497 30.856C45.0497 30.856 47.172 36.2391 42.0477 41.0918L42.0473 41.091ZM59.9977 48.3005C58.5875 57.5558 48.8398 53.7704 43.4007 48.6786C44.923 47.5199 50.5481 48.2027 52.6901 51.1037C52.2842 45.7514 47.9417 45.1815 45.7142 45.5038C48.0525 45.018 50.5554 43.7641 53.2846 43.6795C56.5958 43.577 60.4671 45.2223 59.9981 48.3005H59.9977ZM59.1734 38.6921C52.5668 39.0616 56.86 33.024 56.86 33.024C56.86 33.024 57.0932 34.9422 58.5781 35.8791C58.847 30.2333 62.2316 26.5637 62.2316 26.5637C62.2316 26.5637 59.5544 26.7594 56.8625 29.678C56.8625 29.678 50.1855 37.2579 54.6982 40.8043C54.6234 40.8043 54.55 40.8043 54.4744 40.8086C51.1082 40.9129 49.0559 41.7759 47.4731 42.5874C49.6022 40.0636 51.6232 36.7695 53.2287 33.3707C56.4322 26.5903 60.8232 23.228 65.2796 26.5942C69.0697 29.4565 65.7804 38.3222 59.1738 38.6921H59.1734ZM63.2591 20.0953C57.5193 20.9759 60.788 15.1352 60.788 15.1352C60.788 15.1352 61.1441 16.8595 62.5164 17.5878C62.3016 12.4347 64.9647 8.82002 64.9647 8.82002C64.9647 8.82002 62.6423 9.21869 60.5243 12.0944C60.5243 12.0944 56.1946 18.2564 58.5987 21.5127C55.592 23.2031 52.8929 26.5307 50.7121 31.0937C49.5567 33.5128 48.3497 35.4353 47.1935 36.9592C46.809 36.0807 46.7605 34.8165 46.852 33.5737C51.0704 29.1428 55.5216 21.7951 57.6439 15.7506C59.9014 9.32168 63.4687 5.90444 67.6286 8.59558C71.1667 10.8833 68.9997 19.2129 63.2595 20.0953H63.2591Z" fill="#200A2B"/>
<path d="M6.33994 68.8108H4.41689C3.76242 68.8108 3.31416 69.0995 3.07209 69.677C2.9914 69.8765 2.95106 70.0865 2.95106 70.3071C2.95106 70.7376 3.23347 71.0578 3.79828 71.2678C3.85207 71.2888 4.35413 71.4253 5.30445 71.6774C6.44304 71.9819 7.23199 72.4386 7.67129 73.0477C8.07473 73.6147 8.27644 74.3444 8.27644 75.237C8.27644 76.3185 7.94025 77.2163 7.26785 77.9303C6.62235 78.6128 5.79306 78.9541 4.77998 78.9541H0.100098L0.920422 75.237L1.75419 77.0955H3.63691C4.48861 77.0955 5.07584 76.7753 5.39859 76.1348C5.51513 75.8933 5.57341 75.6412 5.57341 75.3787C5.57341 74.7907 5.25514 74.3602 4.61861 74.0872C4.49309 74.0347 3.9731 73.8877 3.05864 73.6462C2.01867 73.3627 1.29696 72.9479 0.893526 72.4019C0.516984 71.8874 0.328713 71.2048 0.328713 70.3543C0.328713 69.3463 0.638015 68.5062 1.25662 67.8342C1.32834 67.7607 1.39558 67.6977 1.45834 67.6452L0.288369 66.9522H7.38888V69.5353L6.33994 68.8108Z" fill="#200A2B"/>
<path d="M9.92947 72.9374C9.92947 70.8688 10.4808 69.257 11.5836 68.102C11.8346 67.85 12.0991 67.6295 12.377 67.4405L11.2743 66.7632H14.6093C15.8376 66.7632 16.8865 67.2515 17.7562 68.228C18.7692 69.383 19.2758 70.9528 19.2758 72.9374C19.2668 74.7855 18.8141 76.2923 17.9175 77.4578L19.2892 79.5999H15.5104L15.6448 79.0014C15.2862 79.0959 14.9411 79.1431 14.6093 79.1431C13.3901 79.1431 12.3456 78.6549 11.476 77.6783C10.445 76.5128 9.92947 74.9325 9.92947 72.9374ZM14.5152 77.1113L13.6276 74.0872L15.7524 76.4025C16.2903 75.636 16.5593 74.4915 16.5593 72.9689C16.5593 71.2363 16.2321 70.0078 15.5776 69.2833C15.2728 68.9578 14.95 68.795 14.6093 68.795C14.0356 68.795 13.5604 69.194 13.1839 69.992C12.8253 70.7586 12.6459 71.7509 12.6459 72.9689C12.6459 74.691 12.9732 75.909 13.6276 76.623C13.9056 76.917 14.2014 77.0798 14.5152 77.1113Z" fill="#200A2B"/>
<path d="M24.2504 74.9062C24.2504 75.6727 24.5508 76.2765 25.1515 76.7175C25.519 76.9905 25.9135 77.127 26.3349 77.127C26.9893 77.127 27.46 76.812 27.7469 76.182C27.9083 75.8145 27.989 75.3892 27.989 74.9062V68.3382L26.4425 66.9522H29.791V74.9062C29.791 76.6283 29.2486 77.8516 28.1638 78.5761C27.59 78.9646 26.9266 79.1589 26.1735 79.1589C25.0349 79.1589 24.0308 78.7756 23.1612 78.0091C22.2377 77.1795 21.7715 76.1453 21.7626 74.9062V68.3382L20.2161 66.9522H24.2504V74.9062Z" fill="#200A2B"/>
<path d="M32.9502 68.3382L31.4037 66.9522H35.4381V77.0955L35.8549 78.9541H32.5333L32.9502 77.0955V68.3382Z" fill="#200A2B"/>
<path d="M39.6193 68.8108L41.1524 69.5038V77.0955H42.2013C43.0709 77.0955 43.7209 76.5285 44.1512 75.3945C44.4202 74.6805 44.5547 73.8719 44.5547 72.9689C44.5547 71.6144 44.2812 70.5328 43.7344 69.7243C43.313 69.1258 42.7975 68.8213 42.1878 68.8108H39.6193ZM38.6645 77.0955V68.3382L37.118 66.9522H43.2099C44.5816 66.9522 45.644 67.661 46.3971 69.0785C46.9798 70.1706 47.2712 71.4568 47.2712 72.9374C47.2712 74.6175 46.9126 76.0298 46.1953 77.1743C45.4333 78.3503 44.4381 78.9436 43.2099 78.9541H38.2476L38.6645 77.0955Z" fill="#200A2B"/>
<path d="M50.6455 68.8108L52.1786 69.5038V77.0955H53.2275C54.0972 77.0955 54.7471 76.5285 55.1775 75.3945C55.4464 74.6805 55.5809 73.8719 55.5809 72.9689C55.5809 71.6144 55.3075 70.5328 54.7606 69.7243C54.3392 69.1258 53.8237 68.8213 53.2141 68.8108H50.6455ZM49.6907 77.0955V68.3382L48.1442 66.9522H54.2361C55.6078 66.9522 56.6702 67.661 57.4233 69.0785C58.006 70.1706 58.2974 71.4568 58.2974 72.9374C58.2974 74.6175 57.9388 76.0298 57.2216 77.1743C56.4595 78.3503 55.4644 78.9436 54.2361 78.9541H49.2738L49.6907 77.0955Z" fill="#200A2B"/>
<path d="M62.6938 74.9377H65.5582L63.81 69.0313L63.6486 71.6144L62.6938 74.9377ZM61.6987 66.9522C61.6987 66.9522 63.0748 66.9522 65.8272 66.9522L68.8395 77.0955L69.6867 78.9541C69.6867 78.9541 68.714 78.9541 66.7685 78.9541L66.1096 76.7963L61.1876 76.812L62.0214 77.3003L61.5373 78.9541H59.4529L60.2597 77.1113L62.8955 68.039L61.6987 66.9522Z" fill="#200A2B"/>
<path d="M70.8691 72.9374C70.8691 70.8373 71.4608 69.215 72.6442 68.0705C72.9221 67.808 73.2135 67.5875 73.5183 67.409L72.4694 66.7632H75.8045C77.1044 66.7632 78.2161 67.2515 79.1396 68.228C80.2154 69.383 80.7533 70.9528 80.7533 72.9374C80.7533 75.0165 80.1706 76.6388 79.0051 77.8043C78.0906 78.6969 77.0237 79.1431 75.8045 79.1431C74.5045 79.1431 73.3973 78.6496 72.4828 77.6626C71.407 76.497 70.8691 74.922 70.8691 72.9374ZM78.0368 72.9689C78.0368 71.2888 77.6782 70.0813 76.961 69.3463C76.6113 68.9788 76.2258 68.795 75.8045 68.795C75.15 68.795 74.6076 69.194 74.1773 69.992C73.7738 70.7586 73.5721 71.7509 73.5721 72.9689C73.5721 74.6385 73.9307 75.8408 74.6479 76.5758C75.0066 76.9328 75.3921 77.1113 75.8045 77.1113C76.4589 77.1113 77.0013 76.7175 77.4317 75.93C77.8351 75.1635 78.0368 74.1764 78.0368 72.9689Z" fill="#200A2B"/>
</g>
<defs>
<clipPath id="clip0_419_1713">
<rect width="80" height="80" fill="white" transform="translate(0.5)"/>
</clipPath>
</defs>
</svg>
