<svg width="25" height="24" viewBox="0 0 25 24" fill="none" xmlns="http://www.w3.org/2000/svg">
  <path d="M 19.779 6.433 L 5.779 6.433 C 4.675 6.433 3.779 7.787 3.779 9.459 L 3.779 20.053 C 3.779 21.724 4.675 23.079 5.779 23.079 L 19.779 23.079 C 20.884 23.079 21.779 21.724 21.779 20.053 L 21.779 9.459 C 21.779 7.787 20.884 6.433 19.779 6.433 Z" stroke="#200A2B" stroke-width="2" stroke-linecap="round" stroke-linejoin="round" style="fill-opacity: 0;"></path>
  <path d="M 14.657 6.1 L 14.753 3.897 C 14.785 3.167 14.949 2.467 15.208 1.95 C 15.469 1.434 15.802 1.145 16.138 1.145 C 16.473 1.145 16.782 1.434 16.997 1.95 C 17.211 2.467 17.313 3.167 17.281 3.897 L 17.185 6.1" stroke="#200A2B" stroke-width="2" stroke-linecap="round" stroke-linejoin="round" style="fill-opacity: 0;" transform="matrix(0.795519, 0.605929, -0.605929, 0.795519, 5.460927, -8.937093)"></path>
  <path d="M 9.192 6.183 L 9.04 3.976 C 8.99 3.244 9.075 2.543 9.275 2.026 C 9.478 1.509 9.778 1.218 10.113 1.218 C 10.448 1.218 10.788 1.509 11.061 2.026 C 11.333 2.543 11.514 3.244 11.564 3.976 L 11.716 6.183" stroke="#200A2B" stroke-width="2" stroke-linecap="round" stroke-linejoin="round" style="fill-opacity: 0;" transform="matrix(0.775854, -0.630912, 0.630912, 0.775854, -0.010077, 7.372636)"></path>
  <path style="fill: rgb(216, 216, 216); stroke: rgb(0, 0, 0); paint-order: fill; stroke-width: 2;" d="M 3.664 14.782 L 21.782 14.782"></path>
  <path style="fill: rgb(216, 216, 216); stroke: rgb(0, 0, 0); stroke-width: 2;" d="M 9.886 6.486 L 9.885 23.404" transform="matrix(1, 0, 0, 1, 2.837883, -0.000008)"></path>
</svg>