<svg width="160" height="107" viewBox="0 0 160 107" fill="none" xmlns="http://www.w3.org/2000/svg">
<g style="mix-blend-mode:hard-light">
<path d="M108.709 22.7023C108.386 22.4644 108.063 22.2457 107.742 22.0462C112.64 18.0683 115.659 7.70718 110.2 4.28161C105.712 1.46557 101.018 2.67584 97.6074 6.56415C96.444 4.31325 94.01 2.67012 93.1119 2.06367C87.6612 -0.333569 84.1225 -0.0843964 80.6578 0.130059C86.4144 3.76701 89.0302 8.63268 89.9327 14.2261C91.605 10.1317 89.6735 5.55516 89.6735 5.55516C90.4563 5.66941 91.481 6.01 92.6574 7.42901C94.779 9.98841 92.9252 16.5056 92.7438 17.2632C91.3817 21.2781 89.1581 25.7337 86.2917 28.4144C86.3657 27.8542 86.4263 27.2847 86.4736 26.7058C86.9056 21.3484 85.9461 16.822 84.5844 13.2417L87.8949 15.3032C85.2302 7.98492 79.1902 2.2021 79.1902 2.2021C79.1902 2.2021 73.1502 7.98492 70.4856 15.3032L73.7957 13.2417C72.434 16.822 71.4762 21.3484 71.9069 26.7058C71.934 27.0468 71.9665 27.3846 72.0045 27.7192C69.4846 25.0187 67.5168 20.9915 66.2657 17.3221C66.2082 16.9705 64.1441 10.0785 66.3404 7.42901C67.5168 6.01 68.5437 5.67117 69.3248 5.55516C69.3248 5.55516 67.3919 10.1317 69.0656 14.2261C69.968 8.63268 72.5834 3.76701 78.34 0.130059C74.8757 -0.0839569 71.3367 -0.333129 65.8859 2.06367C64.9869 2.67056 62.5499 4.31589 61.3878 6.56899C57.977 2.67715 53.2802 1.46469 48.7907 4.28381C43.3318 7.70938 46.3507 18.0705 51.2489 22.0484C50.9274 22.2488 50.6052 22.4675 50.282 22.7045C43.6506 27.5825 50.1956 40.9934 57.2007 42.9336C55.652 44.793 55.0877 47.2425 55.1435 49.0777C55.2109 51.286 56.0269 57.6445 64.8755 57.3658C71.3453 57.1624 74.0061 53.3228 76.7558 53.2385C79.5056 53.1541 80.1368 53.8537 80.1368 53.8537C80.1368 53.8537 78.9591 51.4842 76.1886 51.5712C75.9156 51.58 75.6326 51.6314 75.3349 51.6678C68.7312 52.4764 67.3241 48.5477 67.3241 48.5477C67.3241 48.5477 66.2324 52.0511 70.1875 53.4362C68.7895 53.9539 67.3794 54.3881 66.076 54.429C62.7586 54.5331 58.9595 52.3253 59.5582 49.1968C61.7887 40.0077 77.1377 50.008 79.2645 51.7153C79.2645 51.7153 88.145 58.359 94.1258 58.5269C102.404 58.7611 103.341 52.9748 103.241 49.6723C103.198 48.2616 102.593 45.1564 100.167 43.1705C107.705 43.1151 115.851 27.9552 108.709 22.7023ZM66.2294 40.2947C68.6348 36.4002 63.0822 29.982 63.0822 29.982C60.3752 26.9936 57.682 26.7928 57.682 26.7928C57.682 26.7928 61.0863 30.5506 61.3571 36.3321C62.8519 35.3728 63.0852 33.4084 63.0852 33.4084C63.0852 33.4084 67.4053 39.5911 60.7588 39.2128C54.1123 38.8344 50.8052 29.7552 54.616 26.824C59.0981 23.3769 63.5155 26.8179 66.7366 33.7635C68.0486 36.5918 69.6367 39.349 71.3349 41.6702C69.7844 41.0022 68.0607 40.4854 66.2281 40.2947H66.2294ZM72.7096 37.3064C71.5747 35.7683 70.3975 33.8399 69.2669 31.4308C67.074 26.7581 64.3605 23.3505 61.3351 21.6195C63.7544 18.2849 59.3984 11.9748 59.3984 11.9748C57.2681 9.03039 54.9322 8.62169 54.9322 8.62169C54.9322 8.62169 57.6107 12.3232 57.3947 17.6002C58.7771 16.8532 59.1336 15.0887 59.1336 15.0887C59.1336 15.0887 62.4212 21.0715 56.6477 20.168C50.8743 19.2645 48.6948 10.7346 52.252 8.39053C56.4356 5.6347 60.0235 9.1341 62.2942 15.7176C64.402 21.8283 68.7921 29.2393 72.9861 33.7934C73.0915 35.0638 73.0647 36.3725 72.71 37.3073L72.7096 37.3064ZM74.9634 31.1883C74.9634 31.1883 76.7399 32.6341 77.9836 41.6693C72.8323 36.7008 74.9638 31.1891 74.9638 31.1891L74.9634 31.1883ZM81.0034 41.6693C82.2467 32.6341 84.0232 31.1883 84.0232 31.1883C84.0232 31.1883 86.1578 36.7008 81.0038 41.6702L81.0034 41.6693ZM99.0577 49.0522C97.6394 58.53 87.8353 54.6535 82.3647 49.4394C83.8957 48.2528 89.5534 48.952 91.7078 51.9227C91.2996 46.4418 86.9319 45.8582 84.6915 46.1883C87.0434 45.6908 89.5607 44.4067 92.3057 44.3201C95.6361 44.2151 99.5299 45.9 99.0581 49.0522H99.0577ZM98.2286 39.2128C91.5838 39.5911 95.9018 33.4084 95.9018 33.4084C95.9018 33.4084 96.1364 35.3728 97.6299 36.3321C97.9003 30.5506 101.305 26.7928 101.305 26.7928C101.305 26.7928 98.6119 26.9932 95.9044 29.982C95.9044 29.982 89.1888 37.7441 93.7275 41.3758C93.6523 41.3758 93.5785 41.3758 93.5024 41.3801C90.1167 41.4869 88.0526 42.3707 86.4606 43.2017C88.6021 40.6173 90.6347 37.244 92.2496 33.7635C95.4715 26.8201 99.888 23.3769 104.37 26.824C108.182 29.7552 104.874 38.8339 98.2291 39.2128H98.2286ZM102.338 20.1689C96.565 21.0706 99.8526 15.0896 99.8526 15.0896C99.8526 15.0896 100.211 16.8554 101.591 17.6011C101.375 12.3241 104.053 8.62257 104.053 8.62257C104.053 8.62257 101.718 9.03083 99.5873 11.9756C99.5873 11.9756 95.2326 18.2858 97.6506 21.6204C94.6265 23.3514 91.9117 26.759 89.7184 31.4317C88.5563 33.9089 87.3423 35.8777 86.1794 37.4382C85.7927 36.5387 85.7439 35.244 85.8359 33.9713C90.0787 29.4339 94.5557 21.9096 96.6903 15.7198C98.9609 9.1363 102.549 5.6369 106.733 8.39273C110.291 10.7355 108.112 19.2653 102.338 20.1689H102.338Z" fill="white"/>
</g>
<path d="M12.3392 84.7308H8.53641C7.24221 84.7308 6.35577 85.3018 5.8771 86.4438C5.71754 86.8383 5.63776 87.2536 5.63776 87.6897C5.63776 88.541 6.19621 89.1743 7.31313 89.5896C7.4195 89.6312 8.41231 89.9011 10.2916 90.3994C12.5431 91.0016 14.1033 91.9049 14.972 93.1092C15.7698 94.2305 16.1687 95.6736 16.1687 97.4386C16.1687 99.5773 15.5038 101.353 14.1742 102.765C12.8977 104.114 11.2578 104.789 9.25443 104.789H0L1.62218 97.4386L3.27096 101.114H6.99401C8.67824 101.114 9.83948 100.481 10.4777 99.2139C10.7082 98.7363 10.8234 98.238 10.8234 97.7189C10.8234 96.5561 10.1941 95.7047 8.93531 95.1649C8.68711 95.061 7.65884 94.7703 5.8505 94.2928C3.79396 93.7321 2.36679 92.9119 1.569 91.8322C0.824389 90.8147 0.452084 89.465 0.452084 87.7831C0.452084 85.7897 1.06373 84.1286 2.28701 82.7997C2.42884 82.6543 2.56181 82.5297 2.68591 82.4259L0.372305 81.0555H14.4135V86.1635L12.3392 84.7308Z" fill="white"/>
<path d="M19.4375 92.8912C19.4375 88.8006 20.5278 85.6132 22.7085 83.3292C23.2049 82.8308 23.7279 82.3948 24.2775 82.021L22.0968 80.6817H28.6919C31.1208 80.6817 33.195 81.6472 34.9147 83.5783C36.9181 85.8624 37.9198 88.9667 37.9198 92.8912C37.902 96.5457 37.0067 99.5254 35.2338 101.83L37.9464 106.066H30.4737L30.7396 104.883C30.0304 105.069 29.3479 105.163 28.6919 105.163C26.2808 105.163 24.2154 104.197 22.4957 102.266C20.4569 99.9614 19.4375 96.8364 19.4375 92.8912ZM28.5058 101.145L26.7506 95.1649L30.9523 99.7434C32.0161 98.2276 32.5479 95.9643 32.5479 92.9535C32.5479 89.5273 31.9008 87.0979 30.6066 85.6652C30.0039 85.0215 29.3656 84.6996 28.6919 84.6996C27.5573 84.6996 26.6177 85.4887 25.873 87.0668C25.1639 88.5826 24.8093 90.5448 24.8093 92.9535C24.8093 96.3588 25.4564 98.7675 26.7506 100.179C27.3002 100.761 27.8853 101.083 28.5058 101.145Z" fill="white"/>
<path d="M47.7571 96.7845C47.7571 98.3003 48.351 99.4942 49.5389 100.366C50.2657 100.906 51.0458 101.176 51.8791 101.176C53.1733 101.176 54.104 100.553 54.6713 99.3074C54.9905 98.5806 55.15 97.7396 55.15 96.7845V83.7964L52.0918 81.0555H58.7135V96.7845C58.7135 100.19 57.6409 102.609 55.4957 104.042C54.3611 104.81 53.0492 105.194 51.5599 105.194C49.3084 105.194 47.3228 104.436 45.6031 102.92C43.777 101.28 42.8551 99.2347 42.8374 96.7845V83.7964L39.7792 81.0555H47.7571V96.7845Z" fill="white"/>
<path d="M64.9608 83.7964L61.9026 81.0555H69.8805V101.114L70.7049 104.789H64.1364L64.9608 101.114V83.7964Z" fill="white"/>
<path d="M78.1489 84.7308L81.1805 86.1012V101.114H83.2548C84.9745 101.114 86.2598 99.9926 87.1108 97.75C87.6426 96.3381 87.9086 94.7392 87.9086 92.9535C87.9086 90.2748 87.3679 88.1361 86.2864 86.5373C85.4531 85.3537 84.4337 84.7515 83.2282 84.7308H78.1489ZM76.2608 101.114V83.7964L73.2025 81.0555H85.2493C87.9618 81.0555 90.0626 82.4571 91.5518 85.2602C92.7042 87.4197 93.2804 89.9634 93.2804 92.8912C93.2804 96.2135 92.5713 99.0063 91.153 101.27C89.646 103.595 87.6781 104.768 85.2493 104.789H75.4364L76.2608 101.114Z" fill="white"/>
<path d="M99.9532 84.7308L102.985 86.1012V101.114H105.059C106.779 101.114 108.064 99.9926 108.915 97.75C109.447 96.3381 109.713 94.7392 109.713 92.9535C109.713 90.2748 109.172 88.1361 108.091 86.5373C107.257 85.3537 106.238 84.7515 105.032 84.7308H99.9532ZM98.065 101.114V83.7964L95.0068 81.0555H107.054C109.766 81.0555 111.867 82.4571 113.356 85.2602C114.509 87.4197 115.085 89.9634 115.085 92.8912C115.085 96.2135 114.376 99.0063 112.957 101.27C111.45 103.595 109.482 104.768 107.054 104.789H97.2407L98.065 101.114Z" fill="white"/>
<path d="M123.779 96.8468H129.443L125.986 85.1668L125.667 90.2748L123.779 96.8468ZM121.811 81.0555C121.811 81.0555 124.532 81.0555 129.975 81.0555L135.932 101.114L137.607 104.789C137.607 104.789 135.683 104.789 131.836 104.789L130.533 100.522L120.8 100.553L122.449 101.519L121.492 104.789H117.37L118.965 101.145L124.177 83.2046L121.811 81.0555Z" fill="white"/>
<path d="M139.945 92.8912C139.945 88.7383 141.115 85.5302 143.455 83.2669C144.005 82.7478 144.581 82.3117 145.184 81.9587L143.11 80.6817H149.705C152.275 80.6817 154.474 81.6472 156.3 83.5783C158.427 85.8624 159.491 88.9667 159.491 92.8912C159.491 97.0025 158.339 100.211 156.034 102.515C154.226 104.28 152.116 105.163 149.705 105.163C147.134 105.163 144.945 104.187 143.136 102.235C141.009 99.9303 139.945 96.8156 139.945 92.8912ZM154.119 92.9535C154.119 89.6312 153.41 87.2432 151.992 85.7897C151.3 85.063 150.538 84.6996 149.705 84.6996C148.411 84.6996 147.338 85.4887 146.487 87.0668C145.689 88.5826 145.29 90.5448 145.29 92.9535C145.29 96.255 145.999 98.6325 147.418 100.086C148.127 100.792 148.889 101.145 149.705 101.145C150.999 101.145 152.072 100.366 152.923 98.809C153.72 97.2932 154.119 95.3414 154.119 92.9535Z" fill="white"/>
</svg>
